<svg width="900" height="900" viewBox="0 0 900 900" fill="none" xmlns="http://www.w3.org/2000/svg">
<g clip-path="url(#clip0_7_102)">
<path d="M67.7091 103.65L66.4509 86.4814L68.8156 86.1218L68.7718 85.5243L70.6468 84.9021L70.6467 84.9017L70.0857 82.3946L70.0856 82.3942L69.8842 81.494L70.4663 82.1437L72.0868 83.9525L73.8193 82.0549L84.0926 93.5217L82.3602 95.4192L83.9807 97.228L97.4951 112.312L99.1157 114.121L100.848 112.224L111.122 123.69L109.389 125.588L111.01 127.397L124.524 142.481L126.145 144.29L127.877 142.392L138.15 153.859L136.418 155.756L138.038 157.565L151.553 172.65L153.173 174.458L154.906 172.561L165.179 184.028L163.447 185.925L165.067 187.734L178.582 202.818L180.202 204.627L181.935 202.73L192.208 214.196L190.476 216.094L192.096 217.903L205.611 232.987L207.231 234.796L208.964 232.898L219.237 244.365L217.505 246.262L219.125 248.071L232.64 263.156L234.26 264.964L235.993 263.067L246.266 274.534L244.533 276.431L246.154 278.24L259.668 293.324L261.289 295.133L263.021 293.235L273.295 304.702L271.562 306.6L273.183 308.409L286.697 323.493L288.318 325.302L290.05 323.404L300.324 334.871L298.591 336.768L300.212 338.577L313.726 353.662L315.347 355.47L317.079 353.573L327.353 365.04L325.62 366.937L327.241 368.746L340.755 383.83L342.376 385.639L344.108 383.741L354.381 395.208L352.649 397.106L354.27 398.915L367.784 413.999L369.405 415.808L371.137 413.91L381.41 425.377L379.678 427.274L381.298 429.083L394.813 444.167L396.433 445.976L398.166 444.079L408.439 455.545L406.707 457.443L408.327 459.252L421.842 474.336L423.462 476.145L425.195 474.247L435.468 485.714L433.736 487.612L435.356 489.42L448.871 504.505L450.491 506.314L452.224 504.416L462.497 515.883L460.765 517.78L462.385 519.589L475.9 534.673L477.52 536.482L479.253 534.585L489.526 546.052L487.793 547.949L489.414 549.758L502.928 564.842L504.549 566.651L506.281 564.753L516.555 576.22L514.822 578.118L516.443 579.926L529.957 595.011L531.578 596.82L533.31 594.922L543.584 606.389L541.851 608.286L543.472 610.095L556.986 625.179L558.607 626.988L560.339 625.091L570.613 636.557L568.88 638.455L570.501 640.264L575.157 645.461L569.469 649.212L567.382 650.589L568.51 652.82L555.896 661.138L554.768 658.907L552.681 660.283L535.893 671.353L533.806 672.729L534.934 674.961L522.32 683.278L521.193 681.047L519.106 682.424L502.318 693.494L500.231 694.87L501.359 697.101L488.745 705.419L487.617 703.188L485.53 704.564L468.743 715.635L466.655 717.011L467.783 719.242L455.17 727.56L454.042 725.329L451.955 726.705L435.167 737.775L433.08 739.152L434.208 741.383L421.594 749.701L420.466 747.469L418.379 748.846L401.592 759.916L399.505 761.292L400.632 763.524L388.019 771.841L386.891 769.61L384.804 770.987L368.016 782.057L365.929 783.433L367.057 785.664L354.443 793.982L353.316 791.751L351.228 793.127L334.441 804.198L332.354 805.574L333.481 807.805L320.868 816.123L319.74 813.892L317.653 815.268L300.865 826.338L298.778 827.715L299.906 829.946L287.292 838.264L286.165 836.032L284.078 837.409L267.29 848.479L265.203 849.855L266.33 852.087L253.717 860.404L252.589 858.173L250.502 859.549L244.814 863.301L243.201 856.095L242.64 853.588L238.03 855.117L238.591 857.625L239.062 859.727L236.811 857.562L235.074 855.89L233.459 857.91L220.855 845.784L222.47 843.765L220.732 842.093L204.653 826.624L202.916 824.952L201.301 826.972L188.697 814.846L190.312 812.827L188.574 811.155L172.495 795.686L170.758 794.015L169.143 796.034L156.539 783.908L158.154 781.889L156.416 780.217L140.337 764.749L138.6 763.077L136.985 765.096L124.381 752.971L125.996 750.951L124.258 749.28L116.894 742.195L116.149 732.024L115.959 729.427L113.594 729.787L112.336 712.618L114.701 712.259L114.51 709.662L112.872 687.3L112.681 684.703L110.317 685.063L109.058 667.894L111.423 667.535L111.233 664.938L109.594 642.576L109.404 639.979L107.039 640.339L105.781 623.17L108.146 622.811L107.955 620.214L106.317 597.852L106.126 595.255L103.762 595.615L102.503 578.446L104.868 578.086L104.678 575.49L103.039 553.128L102.849 550.531L100.484 550.891L99.226 533.722L101.591 533.362L101.4 530.766L99.7615 508.404L99.5712 505.807L97.2066 506.167L95.9485 488.998L98.3131 488.638L98.1228 486.042L96.484 463.68L96.2937 461.083L93.9291 461.442L92.671 444.274L95.0356 443.914L94.8453 441.318L93.2065 418.955L93.0162 416.359L90.6516 416.718L89.3935 399.55L91.7581 399.19L91.5678 396.593L89.929 374.231L89.7387 371.635L87.3741 371.994L86.116 354.826L88.4806 354.466L88.2903 351.869L86.6515 329.507L86.4612 326.911L84.0966 327.27L82.8384 310.102L85.2031 309.742L85.0128 307.145L83.374 284.783L83.1837 282.187L80.8191 282.546L79.5609 265.378L81.9256 265.018L81.7353 262.421L80.0965 240.059L79.9062 237.462L77.5416 237.822L76.2835 220.654L78.6481 220.294L78.4578 217.697L76.819 195.335L76.6287 192.738L74.2641 193.098L73.0059 175.93L75.3706 175.57L75.1803 172.973L73.5415 150.611L73.3512 148.014L70.9866 148.374L69.7284 131.205L72.0931 130.846L71.9028 128.249L70.264 105.887L70.2027 105.05L74.8333 125.746L74.8334 125.746L75.3944 128.253L75.3944 128.253L80.0044 126.724L80.0043 126.723L79.4433 124.216L79.4432 124.216L74.7645 103.305L74.7644 103.305L74.2035 100.798L74.2034 100.798L69.5935 102.327L69.5936 102.328L69.8177 103.329L67.7091 103.65ZM84.1221 145.127L83.5611 142.62L83.561 142.619L78.9511 144.149L78.9512 144.149L79.5121 146.656L79.5122 146.657L84.1909 167.567L84.191 167.568L84.752 170.075L84.7521 170.075L89.362 168.545L89.3619 168.545L88.8009 166.038L88.8009 166.038L84.1221 145.127L84.1221 145.127ZM93.4797 186.948L92.9187 184.441L92.9186 184.441L88.3087 185.971L88.3088 185.971L88.8697 188.478L88.8698 188.478L93.5485 209.389L93.5486 209.389L94.1096 211.896L94.1097 211.897L98.7196 210.367L98.7195 210.367L98.1585 207.86L98.1585 207.859L93.4797 186.949L93.4797 186.948ZM102.837 228.77L102.276 226.263L102.276 226.263L97.6663 227.792L97.6664 227.793L98.2274 230.3L98.2274 230.3L102.906 251.211L102.906 251.211L103.467 253.718L103.467 253.718L108.077 252.189L108.077 252.188L107.516 249.681L107.516 249.681L102.837 228.77L102.837 228.77ZM112.195 270.592L111.634 268.085L111.634 268.084L107.024 269.614L107.024 269.614L107.585 272.122L107.585 272.122L112.264 293.032L112.264 293.033L112.825 295.54L112.825 295.54L117.435 294.01L117.435 294.01L116.874 291.503L116.874 291.503L112.195 270.592L112.195 270.592ZM121.552 312.413L120.992 309.906L120.991 309.906L116.382 311.436L116.382 311.436L116.943 313.943L116.943 313.944L121.621 334.854L121.621 334.854L122.182 337.362L122.182 337.362L126.792 335.832L126.792 335.832L126.231 333.325L126.231 333.324L121.553 312.414L121.552 312.413ZM130.91 354.235L130.349 351.728L125.739 353.257L125.739 353.258L126.3 355.765L126.3 355.765L130.979 376.676L130.979 376.676L131.54 379.183L131.54 379.183L136.15 377.654L136.15 377.653L135.589 375.146L135.589 375.146L130.91 354.235ZM140.268 396.057L139.707 393.55L139.707 393.549L135.097 395.079L135.097 395.079L135.658 397.587L135.658 397.587L140.337 418.497L140.898 421.005L145.508 419.475L145.508 419.475L144.947 416.968L144.947 416.968L140.268 396.057L140.268 396.057ZM149.625 437.879L149.064 435.371L149.064 435.371L144.454 436.901L144.454 436.901L145.015 439.408L145.015 439.409L149.694 460.319L149.694 460.319L150.255 462.827L150.255 462.827L154.865 461.297L154.865 461.297L154.304 458.79L154.304 458.789L149.625 437.879L149.625 437.879ZM158.983 479.7L158.422 477.193L158.422 477.193L153.812 478.722L153.812 478.723L154.373 481.23L154.373 481.23L159.052 502.141L159.052 502.141L159.613 504.648L159.613 504.648L164.223 503.119L164.223 503.118L163.662 500.611L163.662 500.611L158.983 479.7L158.983 479.7ZM168.341 521.522L167.78 519.014L163.17 520.544L163.17 520.544L163.731 523.052L163.731 523.052L168.409 543.962L168.409 543.963L168.97 546.47L168.971 546.47L173.58 544.94L173.58 544.94L173.019 542.433L173.019 542.433L168.341 521.522ZM177.698 563.343L177.137 560.836L177.137 560.836L172.527 562.366L172.527 562.366L173.088 564.873L173.088 564.873L177.767 585.784L178.328 588.292L182.938 586.762L182.938 586.762L182.377 584.255L182.377 584.254L177.698 563.344L177.698 563.343ZM187.056 605.165L186.495 602.658L181.885 604.187L181.885 604.188L182.446 606.695L187.125 627.606L187.686 630.113L192.296 628.583L191.735 626.076L187.056 605.165ZM196.413 646.987L195.852 644.479L191.242 646.009L191.803 648.517L196.482 669.427L197.043 671.935L201.653 670.405L201.092 667.898L196.413 646.987ZM205.771 688.808L205.21 686.301L200.6 687.831L201.161 690.338L205.84 711.249L206.401 713.757L211.011 712.227L210.45 709.719L205.771 688.808ZM215.129 730.63L214.568 728.123L209.958 729.652L210.519 732.16L215.197 753.071L215.759 755.578L220.368 754.048L219.807 751.541L215.129 730.63ZM224.486 772.452L223.925 769.944L219.315 771.474L219.876 773.982L224.555 794.892L225.116 797.4L229.726 795.87L229.165 793.363L224.486 772.452ZM233.844 814.273L233.283 811.766L228.673 813.296L229.234 815.803L233.913 836.714L234.474 839.221L239.084 837.692L238.523 835.184L233.844 814.273Z" fill="black" stroke="white" stroke-width="5" stroke-linecap="square" stroke-dasharray="21 21"/>
<path fill-rule="evenodd" clip-rule="evenodd" d="M189.641 506.648C185.445 511.042 183.711 518.018 185.251 524.307C186.019 527.445 231.19 620.786 233.108 623.199C236.999 628.094 243.072 630.079 248.661 628.284C251.458 627.386 356.178 561.255 358.334 559.025C362.534 554.682 364.337 547.575 362.815 541.36C362.036 538.177 316.889 444.864 314.946 442.419C311.055 437.524 304.982 435.539 299.393 437.334C296.731 438.189 191.628 504.566 189.641 506.648ZM302.104 444.887C303.299 444.586 304.251 444.659 305.826 445.174C309.361 446.33 308.716 445.254 320.56 469.733C330.618 490.519 330.837 491.003 330.788 492.28C330.699 494.598 329.996 495.25 325.274 497.387C314.369 502.321 304.135 508.65 296.308 515.297C284.488 525.337 275.09 538.681 270.066 552.56C265.024 566.487 263.482 583.487 265.747 600.182C266.658 606.896 266.648 606.635 266.014 607.902C265.481 608.966 264.986 609.318 256.504 614.675C245.88 621.384 245.533 621.525 242.228 620.444C238.55 619.241 240.893 623.575 215.003 570.076C189.109 516.57 191.079 521.149 192.146 516.945C192.576 515.247 193.073 514.154 193.81 513.284C194.729 512.199 201.501 507.848 247.68 478.668C295.137 448.68 300.662 445.251 302.104 444.887ZM222.013 513.907C217.294 518.615 214.638 526.868 215.495 534.158C216.535 543.005 222.074 550.431 229.559 553.013C232.568 554.05 235.349 554.27 238.657 553.73C241.049 553.34 241.408 553.184 244.826 551.039C247.969 549.067 248.654 548.515 249.932 546.923C254.381 541.381 256.228 533.957 255.001 526.544C254.414 522.996 252.101 517.924 249.895 515.344C243.379 507.727 233.482 506.02 225.518 511.141C224.384 511.87 222.807 513.115 222.013 513.907Z" fill="white"/>
<path d="M737.291 166.502L737.909 165.716L747.893 173.564L747.275 174.351L757.26 182.199L757.878 181.413L767.863 189.262L767.245 190.048L777.23 197.897L777.848 197.111L787.832 204.959L787.214 205.746L797.199 213.594L797.817 212.808L807.802 220.657L807.184 221.443L817.169 229.292L817.786 228.506L827.771 236.355L827.153 237.141L837.138 244.99L837.756 244.203L847.741 252.052L847.123 252.838L851.733 256.462V262.414H852.733V275.29H851.733V288.166H852.733V301.041H851.733V313.917H852.733V326.793H851.733V339.668H852.733V352.544H851.733V365.42H852.733V378.295H851.733V391.171H852.733V404.047H851.733V416.922H852.733V429.798H851.733V442.674H852.733V455.549H851.733V468.425H852.733V481.301H851.733V494.176H852.733V507.052H851.733V519.928H852.733V532.803H851.733V545.679H852.733V558.555H851.733V571.43H852.733V584.306H851.733V597.182H852.733V610.057H851.733V622.933H852.733V635.809H851.733V648.684H852.733V661.56H851.733V674.436H852.733V687.311H851.733V700.187H852.733V713.062H851.733V725.938H852.733V738.814H851.733V751.69H852.733V764.565H851.733V777.441H852.733V790.316H851.733V803.192H852.733V816.068H851.733V821.506H846.15V822.506H832.983V821.506H819.816V822.506H806.65V821.506H793.483V822.506H780.316V821.506H767.15V822.506H753.983V821.506H740.816V822.506H727.65V821.506H714.483V822.506H701.316V821.506H688.15V822.506H674.983V821.506H661.816V822.506H648.65V821.506H635.483V822.506H622.316V821.506H609.15V822.506H595.983V821.506H582.816V822.506H569.65V821.506H556.483V822.506H543.317V821.506H530.15V822.506H516.983V821.506H503.817V822.506H490.65V821.506H477.483V822.506H464.317V821.506H458.733V816.068H456.733V821.081L451.709 819.264L451.369 820.204L438.642 815.601L438.982 814.661L426.254 810.058L425.914 810.998L413.186 806.395L413.526 805.455L400.798 800.852L400.458 801.792L387.73 797.189L388.071 796.248L375.343 791.645L375.003 792.586L362.275 787.983L362.615 787.042L349.887 782.439L349.547 783.38L336.819 778.777L337.16 777.836L324.432 773.233L324.092 774.174L311.364 769.571L311.704 768.63L306 766.567V760.769H305V747.769H306V734.77H305V721.77H306V708.77H305V695.77H306V682.77H305V669.77H306V656.771H305V643.771H306V630.771H305V617.771H306V604.771H305V591.771H306V578.772H305V565.772H306V552.772H305V539.772H306V526.772H305V513.773H306V500.773H305V487.773H306V474.773H305V461.773H306V448.774H305V435.774H306V422.774H305V409.774H306V396.774H305V383.774H306V370.775H305V357.775H306V344.775H305V331.775H306V318.775H305V305.776H306V292.776H305V279.776H306V266.776H305V253.776H306V240.776H305V227.777H306V221.597L309.347 216.9L308.533 216.32L315.6 206.405L316.414 206.986L323.48 197.071L322.666 196.491L329.732 186.577L330.547 187.157L337.613 177.243L336.799 176.663L343.865 166.748L344.679 167.329L347.579 163.26L351.346 166.476L352.645 164.955L350.11 162.791H353.823H353.823V160.791H353.823H348.398V155.182H347.398V141.963H348.398V128.744H347.398V115.525H348.398V102.306H347.398V89.0866H348.398V83.4771H353.823V82.4771H366.674V83.4771H379.525V82.4771H392.375V83.4771H405.226V82.4771H418.076V83.4771H430.927V82.4771H443.778V83.4771H456.628V82.4771H469.479V83.4771H482.329V82.4771H495.18V83.4771H508.031V82.4771H520.881V83.4771H533.732V82.4771H546.583V83.4771H559.433V82.4771H572.284V83.4771H585.134V82.4771H597.985V83.4771H610.836V82.4771H623.686V83.4771H636.537V82.4771H649.387V83.4771H662.238V82.4771H675.089V83.4771H687.939V82.4771H700.79V83.4771H713.641V82.4771H726.491V83.4771H731.916V89.0866H732.916V102.306H731.916V115.525H732.916V128.744H731.916V141.963H732.916V155.182H731.916V160.791H726.491V162.791H732.57L737.291 166.502ZM458.733 255.515L458.382 255.216L453.785 251.292L452.487 252.813L456.733 256.438V262.414V262.414H458.733V262.414V255.977V255.515ZM360.541 174.325L369.735 182.174L371.034 180.653L361.839 172.804L360.541 174.325ZM378.93 190.022L388.125 197.871L389.423 196.35L380.228 188.501L378.93 190.022ZM397.319 205.72L406.514 213.569L407.812 212.048L398.618 204.199L397.319 205.72ZM415.708 221.418L424.903 229.266L426.201 227.745L417.007 219.896L415.708 221.418ZM434.097 237.115L443.292 244.964L444.591 243.443L435.396 235.594L434.097 237.115ZM405.226 162.791V160.791H392.375H392.375V162.791H392.375H405.226ZM430.927 162.791V160.791H418.076V162.791H430.927ZM458.733 790.317H456.733V803.192H458.733V790.317ZM458.733 764.565H456.733V777.441H458.733V764.565ZM458.733 738.814H456.733V751.69H458.733V738.814ZM458.733 713.063H456.733V725.938H458.733V713.063ZM458.733 687.311H456.733V700.187H458.733V687.311ZM458.733 661.56H456.733V674.436H458.733V661.56ZM458.733 455.549H456.733V468.425H458.733V455.549ZM458.733 429.798H456.733V442.674H458.733V429.798ZM458.733 404.047H456.733V416.922H458.733V404.047ZM458.733 378.295H456.733V391.171H458.733V378.295ZM458.733 352.544H456.733V365.42H458.733V352.544ZM448.465 122.842C448.465 121.094 448.311 119.384 448.017 117.726L447.032 117.9C446.437 114.544 445.246 111.415 443.583 108.646L444.44 108.131C442.642 105.137 440.31 102.542 437.583 100.505L436.985 101.306C434.336 99.3274 431.304 97.8994 428.034 97.1767L428.249 96.2003C426.588 95.8331 424.868 95.6403 423.106 95.6403C421.345 95.6403 419.625 95.8331 417.963 96.2003L418.179 97.1767C414.908 97.8994 411.877 99.3274 409.228 101.306L408.63 100.505C405.903 102.542 403.57 105.137 401.772 108.131L402.63 108.646C400.967 111.415 399.776 114.544 399.181 117.9L398.196 117.726C397.902 119.384 397.748 121.094 397.748 122.842C397.748 124.59 397.902 126.301 398.196 127.959L399.181 127.784C399.776 131.14 400.967 134.269 402.63 137.039L401.772 137.554C403.57 140.548 405.903 143.142 408.63 145.179L409.228 144.378C411.877 146.357 414.908 147.785 418.179 148.508L417.963 149.484C419.625 149.852 421.345 150.044 423.106 150.044C424.868 150.044 426.588 149.852 428.249 149.484L428.034 148.508C431.304 147.785 434.336 146.357 436.985 144.378L437.583 145.179C440.31 143.142 442.642 140.548 444.44 137.554L443.583 137.039C445.246 134.269 446.437 131.14 447.032 127.784L448.017 127.959C448.311 126.301 448.465 124.59 448.465 122.842ZM644.911 144.378C647.56 146.357 650.592 147.785 653.862 148.508L653.646 149.484C655.308 149.852 657.028 150.044 658.79 150.044C660.551 150.044 662.271 149.852 663.933 149.484L663.717 148.508C666.987 147.785 670.019 146.357 672.668 144.378L673.266 145.179C675.993 143.142 678.326 140.548 680.123 137.554L679.266 137.039C680.929 134.269 682.12 131.14 682.715 127.784L683.7 127.959C683.994 126.301 684.148 124.59 684.148 122.842C684.148 121.094 683.994 119.384 683.7 117.726L682.715 117.9C682.12 114.544 680.929 111.415 679.266 108.646L680.123 108.131C678.326 105.137 675.993 102.542 673.266 100.505L672.668 101.306C670.019 99.3274 666.987 97.8994 663.717 97.1767L663.933 96.2003C662.271 95.8331 660.551 95.6403 658.79 95.6403C657.028 95.6403 655.308 95.8331 653.646 96.2003L653.862 97.1767C650.592 97.8994 647.56 99.3274 644.911 101.306L644.313 100.505C641.586 102.542 639.253 105.137 637.456 108.131L638.313 108.646C636.65 111.415 635.459 114.544 634.864 117.9L633.879 117.726C633.585 119.384 633.431 121.094 633.431 122.842C633.431 124.59 633.585 126.301 633.879 127.959L634.864 127.784C635.459 131.14 636.65 134.269 638.313 137.039L637.456 137.554C639.253 140.548 641.586 143.142 644.313 145.179L644.911 144.378ZM456.628 162.791V160.791H443.778V162.791H456.628ZM482.329 162.791V160.791H469.479V162.791H482.329ZM508.031 162.791V160.791H495.18V162.791H508.031ZM533.732 162.791V160.791H520.881V162.791H533.732ZM559.433 162.791V160.791H546.583V162.791H559.433ZM662.238 162.791V160.791H649.387V162.791H662.238ZM687.939 162.791V160.791H675.089V162.791H687.939ZM713.641 162.791V160.791H700.79V162.791H713.641ZM366.674 160.791H366.674V162.791H366.674H379.525H379.525V160.791H379.525H366.674ZM456.733 288.166V288.166H458.733V288.166V275.29V275.29H456.733V275.29V288.166ZM456.733 313.917V313.917H458.733V313.917V301.041V301.041H456.733V301.041V313.917ZM458.733 326.793V326.793H456.733V326.793V339.668H458.733V326.793ZM458.733 648.684V635.809H456.733V648.684H458.733ZM458.733 622.933V610.057H456.733V622.933H458.733ZM458.733 597.182V584.306H456.733V597.182H458.733ZM458.733 571.43V558.555H456.733V571.43H458.733ZM458.733 545.679V532.803H456.733V545.679H458.733ZM458.733 519.928V507.052H456.733V519.928H458.733ZM458.733 494.176V481.301H456.733V494.176H458.733ZM572.284 162.791H585.134V160.791H572.284V162.791ZM597.985 162.791H610.836V160.791H597.985V162.791ZM623.686 162.791H636.537V160.791H623.686V162.791Z" fill="#FF00E6" stroke="black" stroke-width="2" stroke-dasharray="13 13"/>
<path fill-rule="evenodd" clip-rule="evenodd" d="M555.06 453.49C548.576 455.28 543.333 461.313 541.791 468.76C541.021 472.477 541.021 597.473 541.791 601.189C543.353 608.73 548.596 614.7 555.219 616.478C558.535 617.368 698.774 617.355 702.093 616.464C708.557 614.73 713.934 608.607 715.458 601.247C716.239 597.478 716.25 472.526 715.47 468.76C713.908 461.219 708.665 455.25 702.042 453.472C698.887 452.625 558.132 452.643 555.06 453.49ZM701.073 462.975C702.448 463.44 703.388 464.132 704.747 465.679C707.8 469.154 707.672 467.633 707.67 500.412C707.669 528.246 707.654 528.885 706.969 530.163C705.727 532.483 704.682 532.696 698.778 531.83C685.144 529.829 671.505 529.693 660.178 531.443C643.07 534.085 626.807 541.686 614.764 552.668C602.679 563.688 592.659 580.127 586.694 598.719C584.296 606.195 584.416 605.921 583.137 606.81C582.062 607.556 581.379 607.597 570.019 607.598C555.792 607.6 555.367 607.519 552.513 604.27C549.338 600.655 549.589 606.617 549.589 534.975C549.589 463.324 549.337 469.296 552.518 465.674C553.802 464.212 554.855 463.412 556.043 462.997C557.523 462.48 566.629 462.402 628.481 462.378C692.043 462.353 699.413 462.414 701.073 462.975ZM584.661 481.901C577.484 483.675 570.663 490.419 567.924 498.452C564.599 508.2 566.594 519.404 572.99 526.899C575.561 529.912 578.305 531.939 581.966 533.528C584.613 534.677 585.059 534.749 589.63 534.763C593.832 534.775 594.809 534.653 596.91 533.848C604.224 531.045 609.804 524.625 612.225 516.227C613.383 512.208 613.529 505.507 612.547 501.432C609.645 489.399 600.34 481.239 589.63 481.334C588.104 481.347 585.869 481.602 584.661 481.901Z" fill="white"/>
</g>
<defs>
<clipPath id="clip0_7_102">
<rect width="900" height="900" fill="white"/>
</clipPath>
</defs>
</svg>
