<svg width="754" height="720" viewBox="0 0 754 720" fill="none" xmlns="http://www.w3.org/2000/svg">
<g clip-path="url(#clip0_7_103)">
<path d="M40.5 220C40.5 103.192 135.192 8.5 252 8.5C368.808 8.5 463.5 103.192 463.5 220C463.5 246.242 458.721 271.366 449.987 294.551L86.2105 351.338C82.3487 346.47 78.6968 341.427 75.2685 336.225C53.2905 302.873 40.5 262.931 40.5 220Z" fill="#FF00E6" stroke="black"/>
<path fill-rule="evenodd" clip-rule="evenodd" d="M166.847 84.6449C160.362 86.4349 155.119 92.4674 153.577 99.9146C152.808 103.632 152.808 228.627 153.577 232.344C155.139 239.885 160.382 245.855 167.005 247.632C170.321 248.522 310.56 248.51 313.879 247.619C320.343 245.884 325.721 239.762 327.244 232.402C328.025 228.632 328.036 103.68 327.256 99.9146C325.695 92.3739 320.451 86.4041 313.828 84.6264C310.673 83.7793 169.918 83.7971 166.847 84.6449ZM312.859 94.1295C314.234 94.5941 315.174 95.2864 316.534 96.834C319.586 100.309 319.458 98.7878 319.457 131.566C319.455 159.401 319.44 160.04 318.756 161.318C317.513 163.638 316.469 163.851 310.565 162.984C296.93 160.984 283.291 160.847 271.964 162.597C254.856 165.24 238.593 172.841 226.55 183.823C214.466 194.843 204.445 211.282 198.48 229.873C196.082 237.349 196.202 237.076 194.923 237.964C193.848 238.71 193.166 238.751 181.806 238.752C167.579 238.754 167.153 238.673 164.3 235.425C161.124 231.809 161.376 237.771 161.376 166.129C161.376 94.478 161.123 100.451 164.304 96.8289C165.589 95.3665 166.641 94.5669 167.829 94.1516C169.309 93.6342 178.415 93.5564 240.267 93.5323C303.83 93.5075 311.199 93.5683 312.859 94.1295ZM196.448 113.055C189.27 114.829 182.449 121.574 179.71 129.606C176.385 139.354 178.38 150.559 184.776 158.054C187.347 161.067 190.091 163.094 193.752 164.682C196.399 165.831 196.845 165.903 201.416 165.917C205.618 165.93 206.595 165.807 208.696 165.002C216.011 162.199 221.59 155.78 224.011 147.381C225.17 143.362 225.315 136.661 224.333 132.587C221.431 120.554 212.127 112.394 201.416 112.489C199.891 112.502 197.655 112.757 196.448 113.055Z" fill="white"/>
<path d="M451.019 295.256L89.459 351.795C84.7519 320.328 100.399 288.668 129.709 262.863C159.167 236.927 202.375 216.962 252.353 209.147C302.331 201.331 349.572 207.153 385.541 222.857C421.329 238.482 445.895 263.853 451.019 295.256Z" fill="#D9D9D9" stroke="black"/>
<path d="M217.353 288.048L212.56 288.777C212.068 287.446 211.388 286.314 210.521 285.381C209.667 284.447 208.684 283.703 207.571 283.15C206.47 282.581 205.286 282.209 204.021 282.034C202.755 281.859 201.465 281.871 200.151 282.071C197.754 282.435 195.675 283.369 193.913 284.873C192.164 286.374 190.895 288.387 190.106 290.912C189.33 293.434 189.202 296.404 189.721 299.82C190.241 303.237 191.247 306.034 192.738 308.212C194.242 310.388 196.052 311.932 198.169 312.845C200.298 313.757 202.561 314.03 204.957 313.665C206.271 313.466 207.507 313.094 208.663 312.55C209.819 312.006 210.84 311.305 211.724 310.448C212.62 309.576 213.336 308.567 213.874 307.421C214.422 306.26 214.735 304.977 214.811 303.572L219.604 302.843C219.55 304.915 219.167 306.819 218.456 308.557C217.745 310.294 216.766 311.83 215.519 313.163C214.269 314.483 212.806 315.566 211.129 316.412C209.465 317.257 207.634 317.831 205.637 318.135C202.261 318.649 199.134 318.283 196.256 317.039C193.378 315.795 190.954 313.772 188.986 310.97C187.017 308.169 185.716 304.687 185.083 300.526C184.45 296.365 184.657 292.654 185.703 289.394C186.749 286.133 188.462 283.481 190.84 281.437C193.218 279.394 196.095 278.115 199.471 277.601C201.468 277.298 203.386 277.301 205.226 277.613C207.079 277.922 208.8 278.528 210.387 279.43C211.972 280.318 213.362 281.487 214.558 282.934C215.752 284.369 216.684 286.073 217.353 288.048Z" fill="black"/>
<path d="M259.618 289.187C260.251 293.348 260.045 297.059 258.999 300.319C257.952 303.58 256.24 306.232 253.862 308.276C251.484 310.319 248.607 311.598 245.231 312.112C241.855 312.625 238.728 312.26 235.85 311.016C232.972 309.772 230.548 307.749 228.58 304.947C226.611 302.145 225.31 298.664 224.677 294.503C224.044 290.341 224.251 286.63 225.297 283.37C226.343 280.11 228.056 277.458 230.434 275.414C232.812 273.37 235.689 272.091 239.065 271.578C242.44 271.064 245.567 271.43 248.446 272.674C251.324 273.918 253.748 275.941 255.716 278.742C257.685 281.544 258.985 285.026 259.618 289.187ZM254.98 289.893C254.46 286.476 253.449 283.68 251.944 281.504C250.453 279.326 248.643 277.782 246.514 276.87C244.397 275.957 242.141 275.683 239.745 276.047C237.348 276.412 235.269 277.346 233.507 278.849C231.758 280.35 230.489 282.363 229.7 284.888C228.924 287.411 228.796 290.381 229.315 293.797C229.835 297.213 230.841 300.01 232.332 302.188C233.836 304.364 235.646 305.909 237.763 306.822C239.892 307.733 242.155 308.007 244.551 307.642C246.947 307.277 249.02 306.345 250.769 304.843C252.531 303.34 253.8 301.327 254.576 298.804C255.365 296.279 255.5 293.309 254.98 289.893Z" fill="black"/>
<path d="M270.678 307.688L264.676 268.234L269.469 267.504L274.827 302.721L293.225 299.922L293.87 304.16L270.678 307.688Z" fill="black"/>
<path d="M305.412 302.404L300.387 303.169L308.918 261.503L313.866 260.75L334.401 297.994L329.376 298.759L312.496 267.345L312.187 267.392L305.412 302.404ZM304.923 286.71L325.176 283.629L325.821 287.867L305.567 290.948L304.923 286.71Z" fill="black"/>
<path fill-rule="evenodd" clip-rule="evenodd" d="M172.354 694.189C267.451 731.549 374.829 684.743 412.189 589.646C449.549 494.549 402.743 387.171 307.646 349.811C212.549 312.451 105.171 359.257 67.8111 454.354C30.4512 549.451 77.2566 656.829 172.354 694.189ZM285.075 408.631C295.613 412.771 307.512 407.585 311.651 397.047C315.791 386.509 310.605 374.61 300.067 370.47C289.529 366.331 277.631 371.517 273.491 382.055C269.351 392.593 274.537 404.491 285.075 408.631Z" fill="black"/>
<path d="M129.57 453.035L131.902 447.099L173.381 463.394L171.048 469.33L153.658 462.498L134.279 511.826L127.582 509.195L146.961 459.867L129.57 453.035Z" fill="white"/>
<path d="M162.005 522.719L183.717 467.454L217.094 480.567L214.761 486.503L188.081 476.022L180.745 494.695L205.697 504.498L203.365 510.434L178.413 500.632L171.035 519.413L198.147 530.065L195.814 536.001L162.005 522.719Z" fill="white"/>
<path d="M232.405 486.582L237.631 515.174L238.063 515.344L261.353 497.955L269.239 501.052L240.992 521.853L247.527 556.317L239.642 553.219L234.247 525.059L233.815 524.889L210.694 541.847L202.809 538.749L231.487 518.118L224.52 483.484L232.405 486.582Z" fill="white"/>
<path d="M272.598 509.225L274.93 503.288L316.408 519.583L314.076 525.52L296.685 518.688L277.306 568.016L270.609 565.385L289.988 516.057L272.598 509.225Z" fill="white"/>
<path d="M360.25 568.704C357.96 574.533 354.928 579.156 351.153 582.574C347.379 585.992 343.203 588.131 338.626 588.991C334.049 589.851 329.402 589.355 324.685 587.502C319.969 585.649 316.226 582.849 313.458 579.104C310.69 575.358 309.087 570.949 308.649 565.876C308.21 560.803 309.136 555.352 311.426 549.523C313.716 543.695 316.748 539.071 320.522 535.653C324.296 532.235 328.472 530.096 333.049 529.236C337.627 528.376 342.274 528.873 346.99 530.726C351.707 532.579 355.449 535.378 358.217 539.124C360.985 542.869 362.588 547.278 363.027 552.351C363.465 557.424 362.539 562.875 360.25 568.704ZM353.769 566.158C355.649 561.373 356.434 557.019 356.125 553.098C355.834 549.183 354.662 545.846 352.608 543.087C350.572 540.335 347.879 538.302 344.531 536.986C341.182 535.671 337.817 535.324 334.434 535.948C331.069 536.578 327.939 538.224 325.043 540.887C322.166 543.557 319.787 547.284 317.907 552.069C316.027 556.855 315.233 561.205 315.523 565.119C315.832 569.041 317.005 572.377 319.041 575.129C321.095 577.888 323.796 579.926 327.145 581.241C330.493 582.557 333.85 582.899 337.215 582.269C340.598 581.646 343.728 580 346.605 577.33C349.501 574.667 351.889 570.943 353.769 566.158Z" fill="white"/>
<path fill-rule="evenodd" clip-rule="evenodd" d="M609.653 132.9C595.582 130.014 581.012 134.518 571.025 144.843L515.241 202.513C509.408 208.543 505.514 216.182 504.062 224.445L451.268 524.924C447.254 547.77 462.52 569.545 485.366 573.559L612.42 595.882C635.266 599.896 657.041 584.63 661.055 561.784L712.991 266.187C714.469 257.773 713.347 249.109 709.773 241.35L673.95 163.569C668.361 151.433 657.33 142.68 644.241 139.995L609.653 132.9ZM610.089 198.657C620.626 202.797 632.525 197.61 636.665 187.072C640.805 176.534 635.618 164.636 625.08 160.496C614.543 156.356 602.644 161.543 598.504 172.08C594.364 182.618 599.551 194.517 610.089 198.657Z" fill="#FF78C9"/>
<path d="M535.071 520.054L528.798 518.899L536.867 475.071L543.14 476.226L539.757 494.602L591.879 504.198L590.577 511.274L538.454 501.678L535.071 520.054Z" fill="black"/>
<path d="M597.273 474.901L538.878 464.15L545.371 428.882L551.644 430.037L546.454 458.228L566.185 461.861L571.039 435.496L577.312 436.651L572.458 463.016L592.303 466.67L597.577 438.022L603.85 439.177L597.273 474.901Z" fill="black"/>
<path d="M548.35 412.704L575.417 402.11L575.501 401.654L553.982 382.115L555.515 373.783L581.33 397.535L613.91 384.535L612.377 392.866L585.766 403.544L585.682 404L606.745 423.455L605.211 431.786L579.481 407.579L546.816 421.035L548.35 412.704Z" fill="black"/>
<path d="M562.896 368.925L556.623 367.77L564.692 323.942L570.965 325.097L567.582 343.473L619.704 353.069L618.401 360.145L566.279 350.549L562.896 368.925Z" fill="black"/>
<path d="M604.53 271.523C610.689 272.656 615.806 274.749 619.883 277.801C623.959 280.852 626.856 284.542 628.575 288.871C630.294 293.199 630.694 297.856 629.777 302.84C628.859 307.823 626.827 312.032 623.679 315.464C620.531 318.897 616.51 321.313 611.614 322.713C606.718 324.113 601.191 324.245 595.032 323.112C588.873 321.978 583.755 319.885 579.679 316.833C575.603 313.782 572.705 310.092 570.987 305.763C569.268 301.435 568.867 296.778 569.785 291.795C570.703 286.811 572.735 282.602 575.883 279.17C579.03 275.737 583.052 273.321 587.948 271.921C592.844 270.522 598.371 270.389 604.53 271.523ZM603.269 278.371C598.213 277.44 593.789 277.501 589.999 278.553C586.212 279.587 583.161 281.375 580.845 283.919C578.533 286.443 577.051 289.474 576.4 293.012C575.749 296.551 576.052 299.92 577.31 303.122C578.571 306.304 580.786 309.062 583.953 311.395C587.123 313.71 591.236 315.333 596.293 316.263C601.349 317.194 605.771 317.143 609.557 316.11C613.348 315.057 616.399 313.268 618.711 310.744C621.027 308.201 622.51 305.16 623.162 301.622C623.813 298.083 623.508 294.723 622.247 291.541C620.989 288.339 618.774 285.582 615.604 283.267C612.437 280.934 608.325 279.302 603.269 278.371Z" fill="black"/>
</g>
<defs>
<clipPath id="clip0_7_103">
<rect width="754" height="720" fill="white"/>
</clipPath>
</defs>
</svg>
