<svg width="367" height="440" viewBox="0 0 367 440" fill="none" xmlns="http://www.w3.org/2000/svg">
<rect x="101.576" y="218.942" width="9.77911" height="216.363" rx="2" transform="rotate(-22.2942 101.576 218.942)" fill="#D9D9D9"/>
<path d="M89.5341 276.065C82.0752 279.123 75.6415 278.874 70.2331 275.316C65.668 272.304 61.7734 266.867 58.5491 259.003C56.6445 254.358 55.1454 249.662 54.0518 244.917C52.9913 240.158 52.3711 235.529 52.1913 231.029C52.0115 226.53 52.2894 222.249 53.0251 218.188C53.7473 214.094 54.9153 210.378 56.5292 207.042C58.1686 203.58 60.2547 200.593 62.7876 198.081C65.3205 195.57 68.2777 193.621 71.659 192.235C78.1897 189.557 84.064 189.765 89.282 192.858C91.7107 194.342 93.9419 196.431 95.9755 199.124C98.0091 201.818 99.7877 205.022 101.311 208.739C103.502 214.081 105.2 219.876 106.407 226.125C107.781 233.159 108.269 239.78 107.872 245.989C107.423 253.111 105.836 259.11 103.111 263.987C99.8943 269.647 95.3686 273.673 89.5341 276.065ZM87.7137 267.8C89.3381 267.134 90.664 265.835 91.6915 263.902C92.7386 261.922 93.4783 259.429 93.9107 256.422C94.7363 250.503 94.4436 243.414 93.0325 235.155C91.5398 226.698 89.2017 218.587 86.0183 210.823C84.2906 206.609 82.398 203.315 80.3407 200.942C78.0691 198.424 75.9553 197.566 73.9994 198.368C72.4082 199.02 71.0959 200.353 70.0624 202.366C69.0485 204.332 68.3088 206.825 67.8432 209.845C67.4109 212.852 67.2344 216.199 67.3138 219.887C67.3797 223.542 67.7231 227.355 68.344 231.325C69.6183 239.911 71.7723 247.903 74.806 255.302C76.6698 259.848 78.536 263.172 80.4047 265.274C82.7579 267.991 85.1942 268.833 87.7137 267.8Z" fill="#FF00E6"/>
<path d="M146.122 252.863C138.663 255.921 132.23 255.672 126.821 252.114C122.256 249.102 118.362 243.665 115.137 235.801C113.233 231.156 111.734 226.461 110.64 221.715C109.579 216.957 108.959 212.327 108.779 207.828C108.6 203.328 108.878 199.047 109.613 194.986C110.335 190.892 111.503 187.177 113.117 183.841C114.757 180.378 116.843 177.391 119.376 174.88C121.909 172.368 124.866 170.419 128.247 169.033C134.778 166.355 140.652 166.563 145.87 169.656C148.299 171.141 150.53 173.23 152.564 175.923C154.597 178.616 156.376 181.821 157.9 185.537C160.09 190.879 161.788 196.674 162.995 202.923C164.369 209.957 164.857 216.578 164.46 222.787C164.011 229.909 162.424 235.908 159.699 240.785C156.482 246.445 151.957 250.471 146.122 252.863ZM144.302 244.598C145.926 243.932 147.252 242.633 148.28 240.7C149.327 238.72 150.066 236.227 150.499 233.221C151.325 227.301 151.032 220.212 149.621 211.954C148.128 203.496 145.79 195.385 142.607 187.621C140.879 183.407 138.986 180.114 136.929 177.74C134.657 175.222 132.544 174.364 130.588 175.166C128.996 175.819 127.684 177.151 126.651 179.164C125.637 181.13 124.897 183.623 124.431 186.643C123.999 189.65 123.823 192.997 123.902 196.686C123.968 200.341 124.311 204.153 124.932 208.123C126.206 216.709 128.36 224.701 131.394 232.101C133.258 236.646 135.124 239.97 136.993 242.072C139.346 244.789 141.782 245.631 144.302 244.598Z" fill="#FF00E6"/>
<path d="M68.8564 277.403L68.8592 277.405C75.1285 281.528 82.4715 281.663 90.4825 278.378C96.8522 275.766 101.801 271.351 105.285 265.222L105.289 265.214L105.294 265.206C108.244 259.926 109.9 253.542 110.367 246.149C110.779 239.697 110.269 232.86 108.861 225.648C107.626 219.254 105.883 213.299 103.625 207.79C102.034 203.912 100.156 200.512 97.9706 197.618C95.7823 194.72 93.327 192.4 90.5859 190.725L90.5714 190.716L90.5567 190.707C84.5482 187.146 77.8322 187.002 70.7106 189.922C67.0336 191.429 63.7988 193.558 61.0274 196.306C58.2759 199.034 56.0278 202.262 54.2741 205.963C52.5516 209.526 51.3209 213.46 50.5641 217.748C49.7938 222.003 49.5069 226.465 49.6933 231.129C49.8795 235.79 50.5212 240.568 51.6116 245.461L51.6136 245.47L51.6156 245.479C52.7407 250.36 54.2816 255.184 56.236 259.951C59.5529 268.041 63.6985 274 68.8564 277.403ZM72.2843 203.512L72.2864 203.508C73.1349 201.855 74.0617 201.044 74.9478 200.681C75.3892 200.5 76.4234 200.339 78.4679 202.598C80.2812 204.696 82.0433 207.718 83.7052 211.771C86.8184 219.364 89.107 227.3 90.5694 235.583C91.9517 243.676 92.2133 250.489 91.4353 256.072C91.0304 258.884 90.3563 261.078 89.4832 262.73C88.6602 264.277 87.7267 265.093 86.7653 265.487C86.0337 265.787 85.4225 265.791 84.8135 265.58C84.1428 265.349 83.2914 264.788 82.2944 263.637L82.2838 263.625L82.2731 263.613C80.6817 261.823 78.9434 258.803 77.1192 254.354C74.1681 247.156 72.0641 239.361 70.8169 230.958L70.8155 230.948L70.814 230.939C70.209 227.071 69.877 223.372 69.8134 219.842L69.8135 219.842L69.8133 219.834C69.7363 216.26 69.908 213.056 70.316 210.213C70.755 207.372 71.4326 205.163 72.2843 203.512ZM125.445 254.201L125.447 254.203C131.717 258.327 139.06 258.461 147.071 255.176C153.44 252.565 158.389 248.149 161.873 242.02L161.877 242.012L161.882 242.004C164.832 236.724 166.489 230.339 166.955 222.945C167.367 216.493 166.857 209.657 165.449 202.447C164.214 196.052 162.471 190.097 160.213 184.588C158.622 180.71 156.744 177.31 154.559 174.416C152.371 171.518 149.915 169.198 147.174 167.523L147.16 167.514L147.145 167.505C141.136 163.944 134.42 163.8 127.299 166.72C123.622 168.227 120.387 170.356 117.616 173.104C114.864 175.832 112.616 179.06 110.862 182.761C109.14 186.324 107.909 190.258 107.152 194.546C106.382 198.801 106.095 203.264 106.281 207.927C106.468 212.588 107.109 217.366 108.2 222.259L108.202 222.268L108.204 222.277C109.329 227.158 110.87 231.983 112.824 236.749C116.141 244.839 120.287 250.798 125.445 254.201ZM128.873 180.31L128.875 180.306C129.723 178.653 130.65 177.843 131.536 177.479C131.977 177.298 133.012 177.137 135.056 179.397C136.869 181.494 138.632 184.516 140.293 188.57C143.407 196.163 145.695 204.099 147.158 212.382C148.54 220.474 148.801 227.286 148.024 232.869C147.619 235.683 146.944 237.877 146.071 239.529C145.248 241.076 144.315 241.891 143.353 242.285C142.622 242.585 142.011 242.589 141.402 242.379C140.731 242.147 139.88 241.586 138.883 240.435L138.872 240.423L138.861 240.411C137.27 238.621 135.532 235.601 133.707 231.152C130.756 223.955 128.652 216.159 127.405 207.756L127.404 207.746L127.402 207.737C126.797 203.869 126.465 200.171 126.402 196.641L126.401 196.632C126.324 193.058 126.496 189.854 126.904 187.012C127.343 184.17 128.021 181.961 128.873 180.31Z" stroke="black" stroke-width="5"/>
<rect x="183.115" y="64.1645" width="16" height="354" rx="2" fill="#D9D9D9"/>
<path d="M42.1152 15.7834C34.9218 18.3327 29.4884 22.2841 25.8151 27.6375C22.1929 32.94 20.3818 39.4407 20.3818 47.1395C20.3818 50.5045 20.7389 53.5891 21.4531 56.3933C22.2184 59.1465 23.2643 61.3899 24.5907 63.1234C17.8564 63.1234 12.9077 61.7723 9.74463 59.0701C6.58154 56.3168 5 52.0086 5 46.1452C5 38.9053 7.19375 32.0478 11.5813 25.5726C15.7647 19.4034 21.4531 14.4323 28.6466 10.6594C36.0441 6.88646 44.0284 5 52.5993 5C54.9971 5 57.0889 5.17845 58.8745 5.53535C60.7111 5.84126 62.7518 6.37661 64.9966 7.14139L83.8985 90.9614L101.423 5.91774H116.652L91.092 123.082H69.4351L51.2984 45.3805L33.3912 123.082H18.5451L42.1152 15.7834Z" fill="#FF00E6"/>
<path d="M131.766 122.859C124.011 122.859 118.016 120.972 113.782 117.199C109.037 113.018 106.665 106.671 106.665 98.1562C106.665 94.9441 106.997 91.4006 107.66 87.5257C108.323 83.5998 109.343 79.6485 110.721 75.6716C113.884 66.1883 118.399 58.617 124.266 52.9576C131.358 46.0236 139.801 42.5566 149.596 42.5566C163.014 42.5566 169.723 50.8927 169.723 67.5649V67.7179C170.029 67.8198 170.284 67.8708 170.488 67.8708H171.406C174.875 67.8708 178.982 66.9021 183.727 64.9646C187.91 63.2311 191.864 61.0643 195.589 58.464L196.966 62.7468C193.905 65.9589 189.951 68.6866 185.104 70.9299C180.309 73.1733 175.003 74.7794 169.187 75.7481C168.575 82.835 167.197 89.3102 165.055 95.1735C162.912 100.986 160.157 105.982 156.79 110.163C153.474 114.242 149.673 117.378 145.387 119.57C141.102 121.762 136.561 122.859 131.766 122.859ZM138.041 108.787C139.877 108.787 141.74 107.971 143.627 106.339C145.566 104.657 147.377 102.337 149.061 99.3798C150.744 96.4227 152.198 92.9557 153.423 88.9788C154.647 85.0019 155.565 80.7446 156.178 76.2069C154.647 75.7991 153.55 75.0343 152.887 73.9126C152.275 72.7909 151.969 71.3633 151.969 69.6298C151.969 67.4884 152.402 65.7039 153.27 64.2763C154.137 62.8488 155.336 61.8036 156.866 61.1407C156.662 57.8267 156.127 55.4559 155.259 54.0283C154.8 53.3145 154.213 52.8046 153.499 52.4987C152.836 52.1928 151.969 52.0398 150.897 52.0398C147.377 52.0398 143.933 54.6911 140.566 59.9936C137.454 64.7862 134.903 70.7005 132.914 77.7365C130.975 84.6195 130.006 90.7378 130.006 96.0913C130.006 98.6915 130.133 100.807 130.388 102.439C130.694 104.07 131.179 105.345 131.842 106.263C132.454 107.181 133.245 107.843 134.215 108.251C135.184 108.608 136.459 108.787 138.041 108.787Z" fill="#FF00E6"/>
<path d="M273.033 123.165C266.554 123.165 261.758 121.329 258.646 117.658C255.942 114.497 254.59 110.444 254.59 105.498C254.59 103.153 254.871 100.425 255.432 97.3149C256.044 94.2048 256.937 90.2024 258.11 85.3078C259.284 80.3113 260.151 76.3344 260.712 73.3772C261.325 70.3691 261.631 67.7688 261.631 65.5765C261.631 60.223 259.743 57.5463 255.968 57.5463C253.315 57.5463 250.866 58.9484 248.621 61.7526C246.734 64.1489 245.101 67.5649 243.724 72.0006L233.086 122.247H210.511L221.99 68.1767C222.296 66.9531 222.449 65.653 222.449 64.2763C222.449 62.1859 222.118 60.5799 221.454 59.4582C220.587 58.0816 219.337 57.3933 217.705 57.3933C214.746 57.3933 212.169 58.8209 209.975 61.6761C208.037 64.1234 206.379 67.5649 205.001 72.0006L194.364 122.247H171.789L188.395 43.9332H210.97L209.287 52.0398C212.348 48.6238 215.689 46.202 219.312 44.7744C222.169 43.7037 225.204 43.1684 228.418 43.1684C232.806 43.1684 236.301 44.1881 238.902 46.2275C241.81 48.5218 243.673 51.9889 244.489 56.6285C247.856 51.428 251.733 47.7571 256.121 45.6157C259.233 44.0861 262.626 43.3213 266.299 43.3213C271.554 43.3213 275.712 44.6979 278.773 47.4512C282.038 50.4593 283.67 54.9715 283.67 60.9878C283.67 64.4038 283.033 69.12 281.757 75.1362C281.247 77.6345 280.635 80.1583 279.92 82.7076C278.645 87.6022 277.599 92.1144 276.783 96.2442C276.375 98.3856 276.171 100.119 276.171 101.445C276.171 103.535 276.63 105.167 277.548 106.339C278.517 107.461 280.15 108.022 282.446 108.022C285.558 108.022 288.185 106.747 290.328 104.198C291.961 102.26 293.721 98.921 295.608 94.1793H302.19C298.312 105.651 293.415 113.681 287.497 118.27C283.313 121.533 278.492 123.165 273.033 123.165Z" fill="#FF00E6"/>
<path d="M318.03 123.165C310.327 123.165 304.383 121.227 300.2 117.352C295.761 113.222 293.542 106.875 293.542 98.3091C293.542 95.097 293.874 91.5281 294.537 87.6022C295.149 83.6763 296.093 79.7504 297.368 75.8245C298.797 71.4398 300.608 67.2845 302.802 63.3586C305.047 59.4327 307.648 55.9657 310.607 52.9576C317.444 46.0236 325.862 42.5566 335.861 42.5566C342.238 42.5566 346.881 44.0861 349.789 47.1452C352.034 49.5416 353.156 53.0086 353.156 57.5463C353.156 61.982 352.187 66.1628 350.248 70.0887C348.309 73.9636 345.631 77.4051 342.213 80.4132C338.795 83.3704 334.917 85.7412 330.581 87.5257C326.244 89.2592 321.755 90.2789 317.112 90.5848C316.857 93.2361 316.73 95.3265 316.73 96.856C316.73 101.955 317.699 105.473 319.638 107.41C321.321 109.144 324.127 110.01 328.055 110.01C333.718 110.01 338.897 108.481 343.59 105.422C345.58 104.147 347.493 102.643 349.33 100.909C351.166 99.1249 353.309 96.8815 355.758 94.1793H361.115C356.166 102.541 350.478 109.195 344.049 114.14C336.142 120.156 327.469 123.165 318.03 123.165ZM318.337 83.09C321.245 82.886 324.076 82.0448 326.831 80.5662C329.586 79.0876 332.035 77.1502 334.178 74.7539C336.32 72.3065 338.004 69.5788 339.228 66.5707C340.453 63.5116 341.065 60.4015 341.065 57.2404C341.065 55.15 340.759 53.5694 340.147 52.4987C339.585 51.377 338.591 50.8162 337.162 50.8162C335.274 50.8162 333.361 51.7339 331.423 53.5694C329.535 55.4049 327.698 57.9287 325.913 61.1407C324.28 64.1489 322.801 67.5649 321.474 71.3888C320.148 75.2127 319.102 79.1131 318.337 83.09Z" fill="#FF00E6"/>
<mask id="path-6-outside-1_2_42" maskUnits="userSpaceOnUse" x="0" y="0" width="367" height="129" fill="black">
<rect fill="white" width="367" height="129"/>
<path d="M42.1152 15.7834C34.9218 18.3327 29.4884 22.2841 25.8151 27.6375C22.1929 32.94 20.3818 39.4407 20.3818 47.1395C20.3818 50.5045 20.7389 53.5891 21.4531 56.3933C22.2184 59.1465 23.2643 61.3899 24.5907 63.1234C17.8564 63.1234 12.9077 61.7723 9.74463 59.0701C6.58154 56.3168 5 52.0086 5 46.1452C5 38.9053 7.19375 32.0478 11.5813 25.5726C15.7647 19.4034 21.4531 14.4323 28.6466 10.6594C36.0441 6.88646 44.0284 5 52.5993 5C54.9971 5 57.0889 5.17845 58.8745 5.53535C60.7111 5.84126 62.7518 6.37661 64.9966 7.14139L83.8985 90.9614L101.423 5.91774H116.652L91.092 123.082H69.4351L51.2984 45.3805L33.3912 123.082H18.5451L42.1152 15.7834Z"/>
<path d="M131.766 122.859C124.011 122.859 118.016 120.972 113.782 117.199C109.037 113.018 106.665 106.671 106.665 98.1562C106.665 94.9441 106.997 91.4006 107.66 87.5257C108.323 83.5998 109.343 79.6485 110.721 75.6716C113.884 66.1883 118.399 58.617 124.266 52.9576C131.358 46.0236 139.801 42.5566 149.596 42.5566C163.014 42.5566 169.723 50.8927 169.723 67.5649V67.7179C170.029 67.8198 170.284 67.8708 170.488 67.8708H171.406C174.875 67.8708 178.982 66.9021 183.727 64.9646C187.91 63.2311 191.864 61.0643 195.589 58.464L196.966 62.7468C193.905 65.9589 189.951 68.6866 185.104 70.9299C180.309 73.1733 175.003 74.7794 169.187 75.7481C168.575 82.835 167.197 89.3102 165.055 95.1735C162.912 100.986 160.157 105.982 156.79 110.163C153.474 114.242 149.673 117.378 145.387 119.57C141.102 121.762 136.561 122.859 131.766 122.859ZM138.041 108.787C139.877 108.787 141.74 107.971 143.627 106.339C145.566 104.657 147.377 102.337 149.061 99.3798C150.744 96.4227 152.198 92.9557 153.423 88.9788C154.647 85.0019 155.565 80.7446 156.178 76.2069C154.647 75.7991 153.55 75.0343 152.887 73.9126C152.275 72.7909 151.969 71.3633 151.969 69.6298C151.969 67.4884 152.402 65.7039 153.27 64.2763C154.137 62.8488 155.336 61.8036 156.866 61.1407C156.662 57.8267 156.127 55.4559 155.259 54.0283C154.8 53.3145 154.213 52.8046 153.499 52.4987C152.836 52.1928 151.969 52.0398 150.897 52.0398C147.377 52.0398 143.933 54.6911 140.566 59.9936C137.454 64.7862 134.903 70.7005 132.914 77.7365C130.975 84.6195 130.006 90.7378 130.006 96.0913C130.006 98.6915 130.133 100.807 130.388 102.439C130.694 104.07 131.179 105.345 131.842 106.263C132.454 107.181 133.245 107.843 134.215 108.251C135.184 108.608 136.459 108.787 138.041 108.787Z"/>
<path d="M273.033 123.165C266.554 123.165 261.758 121.329 258.646 117.658C255.942 114.497 254.59 110.444 254.59 105.498C254.59 103.153 254.871 100.425 255.432 97.3149C256.044 94.2048 256.937 90.2024 258.11 85.3078C259.284 80.3113 260.151 76.3344 260.712 73.3772C261.325 70.3691 261.631 67.7688 261.631 65.5765C261.631 60.223 259.743 57.5463 255.968 57.5463C253.315 57.5463 250.866 58.9484 248.621 61.7526C246.734 64.1489 245.101 67.5649 243.724 72.0006L233.086 122.247H210.511L221.99 68.1767C222.296 66.9531 222.449 65.653 222.449 64.2763C222.449 62.1859 222.118 60.5799 221.454 59.4582C220.587 58.0816 219.337 57.3933 217.705 57.3933C214.746 57.3933 212.169 58.8209 209.975 61.6761C208.037 64.1234 206.379 67.5649 205.001 72.0006L194.364 122.247H171.789L188.395 43.9332H210.97L209.287 52.0398C212.348 48.6238 215.689 46.202 219.312 44.7744C222.169 43.7037 225.204 43.1684 228.418 43.1684C232.806 43.1684 236.301 44.1881 238.902 46.2275C241.81 48.5218 243.673 51.9889 244.489 56.6285C247.856 51.428 251.733 47.7571 256.121 45.6157C259.233 44.0861 262.626 43.3213 266.299 43.3213C271.554 43.3213 275.712 44.6979 278.773 47.4512C282.038 50.4593 283.67 54.9715 283.67 60.9878C283.67 64.4038 283.033 69.12 281.757 75.1362C281.247 77.6345 280.635 80.1583 279.92 82.7076C278.645 87.6022 277.599 92.1144 276.783 96.2442C276.375 98.3856 276.171 100.119 276.171 101.445C276.171 103.535 276.63 105.167 277.548 106.339C278.517 107.461 280.15 108.022 282.446 108.022C285.558 108.022 288.185 106.747 290.328 104.198C291.961 102.26 293.721 98.921 295.608 94.1793H302.19C298.312 105.651 293.415 113.681 287.497 118.27C283.313 121.533 278.492 123.165 273.033 123.165Z"/>
<path d="M318.03 123.165C310.327 123.165 304.383 121.227 300.2 117.352C295.761 113.222 293.542 106.875 293.542 98.3091C293.542 95.097 293.874 91.5281 294.537 87.6022C295.149 83.6763 296.093 79.7504 297.368 75.8245C298.797 71.4398 300.608 67.2845 302.802 63.3586C305.047 59.4327 307.648 55.9657 310.607 52.9576C317.444 46.0236 325.862 42.5566 335.861 42.5566C342.238 42.5566 346.881 44.0861 349.789 47.1452C352.034 49.5416 353.156 53.0086 353.156 57.5463C353.156 61.982 352.187 66.1628 350.248 70.0887C348.309 73.9636 345.631 77.4051 342.213 80.4132C338.795 83.3704 334.917 85.7412 330.581 87.5257C326.244 89.2592 321.755 90.2789 317.112 90.5848C316.857 93.2361 316.73 95.3265 316.73 96.856C316.73 101.955 317.699 105.473 319.638 107.41C321.321 109.144 324.127 110.01 328.055 110.01C333.718 110.01 338.897 108.481 343.59 105.422C345.58 104.147 347.493 102.643 349.33 100.909C351.166 99.1249 353.309 96.8815 355.758 94.1793H361.115C356.166 102.541 350.478 109.195 344.049 114.14C336.142 120.156 327.469 123.165 318.03 123.165ZM318.337 83.09C321.245 82.886 324.076 82.0448 326.831 80.5662C329.586 79.0876 332.035 77.1502 334.178 74.7539C336.32 72.3065 338.004 69.5788 339.228 66.5707C340.453 63.5116 341.065 60.4015 341.065 57.2404C341.065 55.15 340.759 53.5694 340.147 52.4987C339.585 51.377 338.591 50.8162 337.162 50.8162C335.274 50.8162 333.361 51.7339 331.423 53.5694C329.535 55.4049 327.698 57.9287 325.913 61.1407C324.28 64.1489 322.801 67.5649 321.474 71.3888C320.148 75.2127 319.102 79.1131 318.337 83.09Z"/>
</mask>
<path d="M42.1152 15.7834C34.9218 18.3327 29.4884 22.2841 25.8151 27.6375C22.1929 32.94 20.3818 39.4407 20.3818 47.1395C20.3818 50.5045 20.7389 53.5891 21.4531 56.3933C22.2184 59.1465 23.2643 61.3899 24.5907 63.1234C17.8564 63.1234 12.9077 61.7723 9.74463 59.0701C6.58154 56.3168 5 52.0086 5 46.1452C5 38.9053 7.19375 32.0478 11.5813 25.5726C15.7647 19.4034 21.4531 14.4323 28.6466 10.6594C36.0441 6.88646 44.0284 5 52.5993 5C54.9971 5 57.0889 5.17845 58.8745 5.53535C60.7111 5.84126 62.7518 6.37661 64.9966 7.14139L83.8985 90.9614L101.423 5.91774H116.652L91.092 123.082H69.4351L51.2984 45.3805L33.3912 123.082H18.5451L42.1152 15.7834Z" stroke="black" stroke-width="10" stroke-linejoin="round" mask="url(#path-6-outside-1_2_42)"/>
<path d="M131.766 122.859C124.011 122.859 118.016 120.972 113.782 117.199C109.037 113.018 106.665 106.671 106.665 98.1562C106.665 94.9441 106.997 91.4006 107.66 87.5257C108.323 83.5998 109.343 79.6485 110.721 75.6716C113.884 66.1883 118.399 58.617 124.266 52.9576C131.358 46.0236 139.801 42.5566 149.596 42.5566C163.014 42.5566 169.723 50.8927 169.723 67.5649V67.7179C170.029 67.8198 170.284 67.8708 170.488 67.8708H171.406C174.875 67.8708 178.982 66.9021 183.727 64.9646C187.91 63.2311 191.864 61.0643 195.589 58.464L196.966 62.7468C193.905 65.9589 189.951 68.6866 185.104 70.9299C180.309 73.1733 175.003 74.7794 169.187 75.7481C168.575 82.835 167.197 89.3102 165.055 95.1735C162.912 100.986 160.157 105.982 156.79 110.163C153.474 114.242 149.673 117.378 145.387 119.57C141.102 121.762 136.561 122.859 131.766 122.859ZM138.041 108.787C139.877 108.787 141.74 107.971 143.627 106.339C145.566 104.657 147.377 102.337 149.061 99.3798C150.744 96.4227 152.198 92.9557 153.423 88.9788C154.647 85.0019 155.565 80.7446 156.178 76.2069C154.647 75.7991 153.55 75.0343 152.887 73.9126C152.275 72.7909 151.969 71.3633 151.969 69.6298C151.969 67.4884 152.402 65.7039 153.27 64.2763C154.137 62.8488 155.336 61.8036 156.866 61.1407C156.662 57.8267 156.127 55.4559 155.259 54.0283C154.8 53.3145 154.213 52.8046 153.499 52.4987C152.836 52.1928 151.969 52.0398 150.897 52.0398C147.377 52.0398 143.933 54.6911 140.566 59.9936C137.454 64.7862 134.903 70.7005 132.914 77.7365C130.975 84.6195 130.006 90.7378 130.006 96.0913C130.006 98.6915 130.133 100.807 130.388 102.439C130.694 104.07 131.179 105.345 131.842 106.263C132.454 107.181 133.245 107.843 134.215 108.251C135.184 108.608 136.459 108.787 138.041 108.787Z" stroke="black" stroke-width="10" stroke-linejoin="round" mask="url(#path-6-outside-1_2_42)"/>
<path d="M273.033 123.165C266.554 123.165 261.758 121.329 258.646 117.658C255.942 114.497 254.59 110.444 254.59 105.498C254.59 103.153 254.871 100.425 255.432 97.3149C256.044 94.2048 256.937 90.2024 258.11 85.3078C259.284 80.3113 260.151 76.3344 260.712 73.3772C261.325 70.3691 261.631 67.7688 261.631 65.5765C261.631 60.223 259.743 57.5463 255.968 57.5463C253.315 57.5463 250.866 58.9484 248.621 61.7526C246.734 64.1489 245.101 67.5649 243.724 72.0006L233.086 122.247H210.511L221.99 68.1767C222.296 66.9531 222.449 65.653 222.449 64.2763C222.449 62.1859 222.118 60.5799 221.454 59.4582C220.587 58.0816 219.337 57.3933 217.705 57.3933C214.746 57.3933 212.169 58.8209 209.975 61.6761C208.037 64.1234 206.379 67.5649 205.001 72.0006L194.364 122.247H171.789L188.395 43.9332H210.97L209.287 52.0398C212.348 48.6238 215.689 46.202 219.312 44.7744C222.169 43.7037 225.204 43.1684 228.418 43.1684C232.806 43.1684 236.301 44.1881 238.902 46.2275C241.81 48.5218 243.673 51.9889 244.489 56.6285C247.856 51.428 251.733 47.7571 256.121 45.6157C259.233 44.0861 262.626 43.3213 266.299 43.3213C271.554 43.3213 275.712 44.6979 278.773 47.4512C282.038 50.4593 283.67 54.9715 283.67 60.9878C283.67 64.4038 283.033 69.12 281.757 75.1362C281.247 77.6345 280.635 80.1583 279.92 82.7076C278.645 87.6022 277.599 92.1144 276.783 96.2442C276.375 98.3856 276.171 100.119 276.171 101.445C276.171 103.535 276.63 105.167 277.548 106.339C278.517 107.461 280.15 108.022 282.446 108.022C285.558 108.022 288.185 106.747 290.328 104.198C291.961 102.26 293.721 98.921 295.608 94.1793H302.19C298.312 105.651 293.415 113.681 287.497 118.27C283.313 121.533 278.492 123.165 273.033 123.165Z" stroke="black" stroke-width="10" stroke-linejoin="round" mask="url(#path-6-outside-1_2_42)"/>
<path d="M318.03 123.165C310.327 123.165 304.383 121.227 300.2 117.352C295.761 113.222 293.542 106.875 293.542 98.3091C293.542 95.097 293.874 91.5281 294.537 87.6022C295.149 83.6763 296.093 79.7504 297.368 75.8245C298.797 71.4398 300.608 67.2845 302.802 63.3586C305.047 59.4327 307.648 55.9657 310.607 52.9576C317.444 46.0236 325.862 42.5566 335.861 42.5566C342.238 42.5566 346.881 44.0861 349.789 47.1452C352.034 49.5416 353.156 53.0086 353.156 57.5463C353.156 61.982 352.187 66.1628 350.248 70.0887C348.309 73.9636 345.631 77.4051 342.213 80.4132C338.795 83.3704 334.917 85.7412 330.581 87.5257C326.244 89.2592 321.755 90.2789 317.112 90.5848C316.857 93.2361 316.73 95.3265 316.73 96.856C316.73 101.955 317.699 105.473 319.638 107.41C321.321 109.144 324.127 110.01 328.055 110.01C333.718 110.01 338.897 108.481 343.59 105.422C345.58 104.147 347.493 102.643 349.33 100.909C351.166 99.1249 353.309 96.8815 355.758 94.1793H361.115C356.166 102.541 350.478 109.195 344.049 114.14C336.142 120.156 327.469 123.165 318.03 123.165ZM318.337 83.09C321.245 82.886 324.076 82.0448 326.831 80.5662C329.586 79.0876 332.035 77.1502 334.178 74.7539C336.32 72.3065 338.004 69.5788 339.228 66.5707C340.453 63.5116 341.065 60.4015 341.065 57.2404C341.065 55.15 340.759 53.5694 340.147 52.4987C339.585 51.377 338.591 50.8162 337.162 50.8162C335.274 50.8162 333.361 51.7339 331.423 53.5694C329.535 55.4049 327.698 57.9287 325.913 61.1407C324.28 64.1489 322.801 67.5649 321.474 71.3888C320.148 75.2127 319.102 79.1131 318.337 83.09Z" stroke="black" stroke-width="10" stroke-linejoin="round" mask="url(#path-6-outside-1_2_42)"/>
<rect x="252.676" y="267.923" width="7.25508" height="160.519" rx="2" transform="rotate(22.5536 252.676 267.923)" fill="#D9D9D9"/>
<path fill-rule="evenodd" clip-rule="evenodd" d="M232.947 208.541C231.154 208.338 229.621 209.1 228.44 210.782C227.392 212.275 226.112 215.776 225.276 219.437C224.159 224.327 223.497 226.675 219.884 238.566C218.368 243.552 217.882 246.102 218.062 248.121C218.315 250.961 219.721 252.064 224.815 253.419C227.239 254.064 230.015 255.121 229.764 255.302C229.682 255.361 228.637 255.61 227.44 255.856C224.836 256.393 223.093 257.005 221.158 258.062C219.542 258.945 217.191 260.923 216.24 262.199C214.247 264.873 213.351 268.505 213.63 272.771C214.189 281.297 219.668 290.321 226.991 294.775C228.72 295.826 229.851 296.276 230.695 296.246C231.989 296.202 233.357 295.36 238.534 291.424C242.885 288.115 245.119 286.536 246.134 286.048C247.013 285.626 247.021 285.626 246.862 286.026C246.488 286.969 246.807 288.244 247.536 288.721C248.351 289.255 249.68 288.631 250.154 287.491L250.346 287.027L250.565 287.514C250.991 288.464 251.5 291.459 252.409 298.373C253.032 303.112 253.566 305.22 254.358 306.07C254.945 306.701 256.201 307.245 258.094 307.69C271.285 310.791 287.13 302.826 288.683 292.314C288.92 290.714 288.665 287.663 288.147 285.884C287.53 283.766 286.734 282.099 285.275 279.876C284.605 278.854 284.044 277.938 284.028 277.839C283.979 277.532 286.687 278.754 288.855 280.016C289.969 280.664 291.372 281.399 291.973 281.649C296.091 283.359 298.222 281.671 302.858 273.026C308.838 261.875 309.56 260.591 312.412 256.049C314.066 253.413 314.335 252.901 315.437 250.267C316.571 247.56 316.648 247.316 316.658 246.394C316.687 243.939 315.396 242.388 312.476 241.368C306.429 239.256 299.098 240.09 289.625 243.967C286.136 245.395 285.155 245.844 280.025 248.365C273.183 251.725 271.349 252.582 268.968 253.534C266.693 254.443 264.843 255.059 264.811 254.917C264.802 254.877 264.696 254.281 264.575 253.594C264.348 252.306 263.846 251.312 263.311 251.09C262.792 250.874 261.58 251.293 260.562 252.04C260.026 252.433 259.546 252.739 259.495 252.721C259.306 252.655 257.842 249.483 256.921 247.145C256.399 245.819 255.224 242.516 254.31 239.805C253.396 237.093 252.095 233.355 251.419 231.498C247.623 221.072 243.329 214.477 237.93 210.78C236.475 209.784 233.967 208.657 232.947 208.541ZM233.819 213.578C234.342 214.194 234.844 215.996 234.88 217.391C234.894 217.923 234.605 219.798 234.204 221.774C233.368 225.899 233.168 226.7 232.991 226.626C232.918 226.596 232.569 225.768 232.216 224.788C231.744 223.477 231.25 222.518 230.354 221.174C229.234 219.492 229.129 219.259 229.056 218.305C228.982 217.343 229.023 217.153 229.611 215.737C230.186 214.352 230.317 214.146 231 213.545C232.127 212.553 232.956 212.563 233.819 213.578ZM312.072 246.028C312.26 246.279 312.417 246.852 312.452 247.415C312.505 248.273 312.445 248.535 311.881 249.893C311.3 251.291 311.187 251.466 310.457 252.1C309.722 252.736 309.506 252.819 307.544 253.206C305.999 253.511 304.932 253.85 303.611 254.455C302.614 254.912 301.777 255.234 301.751 255.17C301.624 254.862 306.306 247.864 307.085 247.198C307.331 246.987 307.978 246.535 308.522 246.192C310.212 245.127 311.358 245.074 312.072 246.028ZM305.057 244.117C304.647 245.104 303.064 247.374 302.245 248.148C301.255 249.083 301.016 249.11 299.448 248.466C298.554 248.098 297.858 247.912 297.237 247.875C296.739 247.844 296.312 247.773 296.288 247.715C296.182 247.456 296.976 245.951 297.407 245.593C298.16 244.969 299.65 244.373 301.786 243.843C303.949 243.306 305.097 243.137 305.24 243.336C305.289 243.405 305.207 243.756 305.057 244.117ZM239.836 216.692C240.692 217.906 242.166 220.554 242.507 221.493C242.967 222.758 242.981 223.827 242.549 224.609C242.364 224.943 242.178 225.23 242.136 225.248C242.093 225.265 241.753 225.008 241.38 224.677C240.915 224.263 240.292 223.902 239.401 223.528C237.837 222.872 237.688 222.683 237.652 221.322C237.624 220.264 238.355 216.269 238.63 215.98C238.88 215.716 239.338 215.987 239.836 216.692ZM247.026 230.105C247.423 230.543 249.499 234.749 249.771 235.666C249.812 235.803 250.232 236.992 250.706 238.308C252.687 243.811 254.761 250.945 255.935 256.29C256.174 257.378 256.331 258.284 256.285 258.303C255.947 258.443 254.403 255.682 252.473 251.489C250.785 247.822 244.179 231.59 244.06 230.816C244.013 230.507 244.071 230.021 244.189 229.735C244.645 228.635 245.835 228.79 247.026 230.105ZM291.734 248.654C291.931 249.106 291.676 249.751 291.115 250.225C290.599 250.66 274.502 257.437 270.432 258.933C266.109 260.521 263.035 261.387 262.898 261.053C262.88 261.01 263.639 260.478 264.585 259.872C272.07 255.078 283.943 249.105 288.375 247.904C290.022 247.458 291.344 247.753 291.734 248.654ZM240.064 228.86C241.486 230.425 242.418 232.547 244.63 239.261C245.182 240.936 245.899 243.028 246.225 243.909C246.976 245.942 248.077 248.354 250.538 253.357C252.794 257.941 254.609 261.789 254.658 262.093C254.712 262.423 252.913 266.275 252.739 266.202C252.303 266.022 246.939 258.169 243.948 253.334C237.352 242.671 233.362 234.114 233.703 231.361C233.893 229.835 234.916 228.28 236.125 227.681C237.446 227.027 238.753 227.418 240.064 228.86ZM298.388 252.857C298.822 253.374 299.119 254.622 299.008 255.469C298.882 256.432 298.062 258.004 297.385 258.579C294.234 261.257 281.211 265.299 267.003 268.01C263.975 268.588 259.983 269.211 259.8 269.135C259.744 269.112 260.036 268.146 260.448 266.988L261.198 264.882L262.672 264.332C263.483 264.029 266.23 263.072 268.777 262.206C278.614 258.861 279.519 258.491 286.001 255.171C293.163 251.504 296.696 250.844 298.388 252.857ZM228.771 228.556C229.121 228.945 229.606 229.566 229.848 229.936C230.417 230.804 230.238 231.315 229.103 232.068C227.544 233.101 227.076 233.791 226.736 235.559C226.446 237.062 226.039 237.34 224.851 236.847C224.229 236.589 223.949 235.921 224.079 235.006C224.126 234.677 224.768 232.897 225.505 231.05C227.209 226.783 227.19 226.797 228.771 228.556ZM305.262 259.975C305.34 260.23 305.089 260.927 304.054 263.332C302.481 266.99 302.165 267.568 301.501 268.009C301.051 268.309 300.899 268.318 300.236 268.087C299.205 267.728 299.053 267.358 299.568 266.457C299.776 266.093 300.12 265.491 300.333 265.118C300.896 264.13 300.971 263.533 300.715 262.077C300.391 260.244 300.581 259.927 302.145 259.687C303.28 259.512 304.656 259.466 304.998 259.592C305.089 259.625 305.208 259.798 305.262 259.975ZM232.541 240.463C234.186 241.854 236.276 244.736 238.281 248.378C239.577 250.733 241.31 254.594 241.194 254.872C241.156 254.963 240.829 255.155 240.467 255.298C239.003 255.877 236.911 255.527 234.776 254.347C229.825 251.61 225.859 246.699 225.977 243.452C226.022 242.204 226.521 241.051 227.343 240.297C228.049 239.649 229.408 239.125 230.182 239.201C230.781 239.26 231.698 239.751 232.541 240.463ZM294.817 266.053C295.085 266.263 295.47 266.785 295.673 267.213C296.494 268.946 296.037 271.008 294.543 272.302C292.954 273.679 290.063 274.422 286.607 274.343C281.008 274.214 276.72 272.342 276.076 269.744L275.947 269.221L277.375 268.616C283.112 266.187 290.465 264.738 293.495 265.439C294.177 265.597 294.32 265.663 294.817 266.053ZM238.262 261.118C242.779 263.482 249.957 267.571 251.027 268.39C251.293 268.594 251.451 268.806 251.375 268.86C250.955 269.163 244.587 268.295 238.965 267.168C233.963 266.165 231.495 265.461 230.14 264.651C228.285 263.543 227.679 262.305 228.367 261.034C229.027 259.815 230.96 258.911 232.815 258.953C233.859 258.977 235.156 259.493 238.262 261.118ZM279.462 278.56C280.381 279.635 280.831 280.606 280.903 281.664C281.049 283.813 279.677 284.742 277.198 284.171C275.524 283.786 273.23 282.498 268.323 279.19C263.827 276.157 259.345 272.703 259.046 272.038C259.003 271.944 259.248 271.905 259.589 271.951C260.457 272.069 265.044 273.281 269.253 274.506C274.41 276.005 275.469 276.351 277.225 277.109C278.663 277.73 278.862 277.86 279.462 278.56ZM250.633 271.26C250.451 271.698 244.102 273.156 241.093 273.45C236.5 273.9 228.253 274.062 226.506 273.737C224.395 273.345 222.57 271.907 222.109 270.276C221.652 268.656 221.895 266.489 222.6 265.912C222.781 265.764 223.17 265.582 223.463 265.508C223.958 265.384 224.198 265.456 226.773 266.503C229.133 267.462 229.982 267.733 232.433 268.305C235.517 269.024 241.91 270.037 244.867 270.273C249.162 270.618 250.785 270.895 250.633 271.26ZM259.597 275.168C260.158 275.595 261.292 276.521 262.116 277.227C264.576 279.334 270.05 283.355 272.763 285.049C274.925 286.399 275.709 286.806 278.06 287.803C280.619 288.888 280.84 289.007 281.101 289.445C281.526 290.16 281.521 290.667 281.08 291.456C280.633 292.256 279.424 293.413 278.582 293.847C278.26 294.013 277.478 294.183 276.845 294.224C275.791 294.292 275.583 294.251 274.389 293.744C272.861 293.093 272.105 292.451 268.877 289.063C265.315 285.322 262.23 281.655 260.649 279.28C259.141 277.017 257.745 274.508 257.851 274.253C257.94 274.039 258.486 274.325 259.597 275.168ZM249.584 273.791C248.169 275.431 243.011 277.918 233.183 281.7C227.221 283.994 225.697 284.314 223.821 283.665C222.999 283.38 222.807 283.252 222.496 282.781C221.962 281.973 221.941 281.175 222.427 280.229C223.216 278.692 225.013 277.63 227.246 277.381C229.75 277.102 241.519 275.162 244.537 274.53C246.355 274.15 249.099 273.426 249.569 273.202C250.079 272.959 250.086 273.209 249.584 273.791ZM258.975 279.493C260.311 281.632 261.315 283.124 263.266 285.867C265.785 289.412 269.29 294.226 270.017 295.14C271.437 296.925 271.942 298.905 271.404 300.57C270.729 302.655 268.584 302.946 266.78 301.197C265.372 299.832 264.3 297.714 260.809 289.399C258.026 282.771 256.91 279.394 256.815 277.308C256.752 275.927 256.927 275.744 257.377 276.72C257.585 277.172 258.304 278.419 258.975 279.493ZM248.193 277.882C246.007 281.751 243.632 284.333 239.362 287.481C233.708 291.65 232.054 292.587 230.186 292.679C229.037 292.735 228.471 292.532 227.9 291.857C226.407 290.093 227.125 287.637 229.365 286.847C234.833 284.918 240.094 282.203 247.976 277.241C248.4 276.974 248.753 276.777 248.761 276.804C248.769 276.83 248.513 277.316 248.193 277.882ZM256.149 283.052C256.962 286.535 257.81 289.705 258.627 292.306C259.355 294.628 260.942 298.614 261.587 299.744C262.965 302.156 261.823 304.694 259.265 304.902C257.372 305.056 255.913 302.917 255.181 298.916C253.54 289.942 253.435 286.26 254.681 281.509C254.857 280.836 255.05 280.078 255.108 279.823C255.249 279.21 255.264 279.256 256.149 283.052Z" fill="black"/>
</svg>
